<svg data-v-fde0c5aa="" xmlns="http://www.w3.org/2000/svg" viewBox="0 0 300 300" class="font"><!----><defs data-v-fde0c5aa=""><!----></defs><rect data-v-fde0c5aa="" fill="transparent" x="0" y="0" width="300px" height="300px" class="logo-background-square"></rect><defs data-v-fde0c5aa=""><linearGradient data-v-fde0c5aa="" gradientTransform="rotate(25)" id="23f537ee-b42b-48ba-99d4-b2dfda999143" x1="0%" y1="0%" x2="100%" y2="0%"><stop data-v-fde0c5aa="" offset="0%" stop-color="#181B80" stop-opacity="1"></stop><stop data-v-fde0c5aa="" offset="100%" stop-color="#181ED9" stop-opacity="1"></stop></linearGradient></defs><g data-v-fde0c5aa="" id="3e90b1b3-ce01-4815-90db-20779db03d4b" fill="url(#23f537ee-b42b-48ba-99d4-b2dfda999143)" transform="matrix(2.822684027568406,0,0,2.822684027568406,38.19348209448996,112.02078662442081)"><path d="M0.85 15.90L0.85 15.90Q1.41 16.04 2.16 16.14L2.16 16.14L2.16 16.14Q2.91 16.23 3.60 16.23L3.60 16.23L3.60 16.23Q4.31 16.23 5.18 16.14L5.18 16.14L5.18 13.54L3.85 13.44L3.85 13.44Q2.56 13.34 1.92 13.11L1.92 13.11L1.92 13.11Q1.27 12.88 1.02 12.38L1.02 12.38L1.02 12.38Q0.76 11.89 0.76 10.95L0.76 10.95L0.76 10.95Q0.76 9.94 1.02 9.35L1.02 9.35L1.02 9.35Q1.27 8.75 1.85 8.48L1.85 8.48L1.85 8.48Q2.44 8.22 3.42 8.22L3.42 8.22L3.42 8.22Q4.83 8.22 6.24 8.48L6.24 8.48L6.06 9.59L6.06 9.59Q4.94 9.38 3.50 9.38L3.50 9.38L3.50 9.38Q2.79 9.38 2.28 9.45L2.28 9.45L2.28 12.08L3.84 12.18L3.84 12.18Q4.96 12.25 5.57 12.51L5.57 12.51L5.57 12.51Q6.19 12.77 6.45 13.31L6.45 13.31L6.45 13.31Q6.71 13.85 6.71 14.80L6.71 14.80L6.71 14.80Q6.71 15.78 6.40 16.34L6.40 16.34L6.40 16.34Q6.09 16.90 5.39 17.14L5.39 17.14L5.39 17.14Q4.69 17.39 3.47 17.39L3.47 17.39L3.47 17.39Q1.99 17.39 0.64 17.05L0.64 17.05L0.85 15.90ZM11.59 11.14L10.35 11.14L10.35 16.14L10.35 16.14Q10.85 16.20 11.34 16.21L11.34 16.21L11.26 17.16L11.26 17.16Q10.47 17.32 9.98 17.32L9.98 17.32L9.98 17.32Q9.45 17.32 9.20 17.06L9.20 17.06L9.20 17.06Q8.95 16.80 8.95 16.27L8.95 16.27L8.95 11.14L7.97 11.14L7.97 10.18L8.95 10.18L8.95 8.68L10.35 8.33L10.35 10.18L11.59 10.18L11.59 11.14ZM14.14 10.18L14.63 11.28L14.63 11.28Q15.26 10.72 15.71 10.42L15.71 10.42L15.71 10.42Q16.16 10.11 16.55 9.97L16.55 9.97L16.69 11.34L16.69 11.34Q16.23 11.48 15.73 11.73L15.73 11.73L15.73 11.73Q15.23 11.97 14.88 12.24L14.88 12.24L14.88 17.18L13.48 17.18L13.48 10.18L14.14 10.18ZM20.71 16.21L20.71 16.21Q21.28 16.21 21.83 16.14L21.83 16.14L21.83 16.14Q22.37 16.06 23.13 15.88L23.13 15.88L23.31 16.90L23.31 16.90Q22.79 17.09 22.03 17.21L22.03 17.21L22.03 17.21Q21.27 17.32 20.45 17.32L20.45 17.32L20.45 17.32Q19.36 17.32 18.79 17.00L18.79 17.00L18.79 17.00Q18.21 16.69 17.98 15.92L17.98 15.92L17.98 15.92Q17.74 15.15 17.74 13.68L17.74 13.68L17.74 13.68Q17.74 12.26 18.01 11.49L18.01 11.49L18.01 11.49Q18.28 10.71 18.91 10.37L18.91 10.37L18.91 10.37Q19.54 10.04 20.69 10.04L20.69 10.04L20.69 10.04Q21.83 10.04 22.42 10.22L22.42 10.22L22.42 10.22Q23.02 10.40 23.25 10.84L23.25 10.84L23.25 10.84Q23.49 11.28 23.49 12.14L23.49 12.14L23.49 12.14Q23.49 13.16 23.20 13.61L23.20 13.61L23.20 13.61Q22.90 14.06 22.04 14.21L22.04 14.21L22.04 14.21Q21.18 14.36 19.21 14.36L19.21 14.36L19.21 16.06L19.21 16.06Q19.77 16.21 20.71 16.21L20.71 16.21ZM20.37 11.19L20.37 11.19Q19.70 11.19 19.45 11.35L19.45 11.35L19.45 11.35Q19.21 11.52 19.21 12.00L19.21 12.00L19.21 13.45L21.06 13.45L21.06 13.45Q21.74 13.45 21.99 13.29L21.99 13.29L21.99 13.29Q22.23 13.12 22.23 12.64L22.23 12.64L22.23 11.19L20.37 11.19ZM28.34 10.04L28.34 10.04Q29.30 10.04 29.86 10.23L29.86 10.23L29.86 10.23Q30.42 10.42 30.67 10.84L30.67 10.84L30.67 10.84Q30.91 11.27 30.91 12.00L30.91 12.00L30.91 17.18L30.27 17.18L29.89 16.48L29.89 16.48Q29.39 16.91 28.78 17.12L28.78 17.12L28.78 17.12Q28.17 17.32 27.38 17.32L27.38 17.32L27.38 17.32Q26.22 17.32 25.73 16.84L25.73 16.84L25.73 16.84Q25.24 16.35 25.24 15.22L25.24 15.22L25.24 15.22Q25.24 14.20 25.52 13.75L25.52 13.75L25.52 13.75Q25.80 13.30 26.62 13.15L26.62 13.15L26.62 13.15Q27.44 12.99 29.30 12.99L29.30 12.99L29.51 12.99L29.51 11.30L29.51 11.30Q28.99 11.14 28.10 11.14L28.10 11.14L28.10 11.14Q26.98 11.14 25.73 11.48L25.73 11.48L25.55 10.46L25.55 10.46Q26.07 10.28 26.84 10.16L26.84 10.16L26.84 10.16Q27.61 10.04 28.34 10.04L28.34 10.04ZM28.39 16.24L28.39 16.24Q29.05 16.24 29.28 16.07L29.28 16.07L29.28 16.07Q29.51 15.90 29.51 15.43L29.51 15.43L29.51 13.90L27.65 13.90L27.65 13.90Q26.99 13.90 26.75 14.07L26.75 14.07L26.75 14.07Q26.52 14.24 26.52 14.71L26.52 14.71L26.52 16.24L28.39 16.24ZM40.91 10.04L40.91 10.04Q41.89 10.04 42.39 10.34L42.39 10.34L42.39 10.34Q42.90 10.64 42.90 11.23L42.90 11.23L42.90 17.18L41.50 17.18L41.50 11.19L40.01 11.19L40.01 11.19Q39.40 11.19 39.14 11.31L39.14 11.31L39.14 11.31Q38.89 11.44 38.84 11.77L38.84 11.77L38.84 17.18L37.44 17.18L37.44 11.19L35.95 11.19L35.95 11.19Q35.27 11.19 35.01 11.35L35.01 11.35L35.01 11.35Q34.76 11.52 34.76 12.00L34.76 12.00L34.76 17.18L33.36 17.18L33.36 10.18L34.01 10.18L34.38 10.88L34.38 10.88Q34.89 10.44 35.48 10.24L35.48 10.24L35.48 10.24Q36.08 10.04 36.85 10.04L36.85 10.04L36.85 10.04Q38.29 10.04 38.70 10.68L38.70 10.68L38.70 10.68Q39.61 10.04 40.91 10.04L40.91 10.04ZM44.94 15.90L44.94 15.90Q45.50 16.04 46.25 16.14L46.25 16.14L46.25 16.14Q47.00 16.23 47.68 16.23L47.68 16.23L47.68 16.23Q48.40 16.23 49.27 16.14L49.27 16.14L49.27 13.54L47.94 13.44L47.94 13.44Q46.65 13.34 46.00 13.11L46.00 13.11L46.00 13.11Q45.36 12.88 45.10 12.38L45.10 12.38L45.10 12.38Q44.84 11.89 44.84 10.95L44.84 10.95L44.84 10.95Q44.84 9.94 45.10 9.35L45.10 9.35L45.10 9.35Q45.36 8.75 45.94 8.48L45.94 8.48L45.94 8.48Q46.52 8.22 47.50 8.22L47.50 8.22L47.50 8.22Q48.92 8.22 50.33 8.48L50.33 8.48L50.15 9.59L50.15 9.59Q49.03 9.38 47.59 9.38L47.59 9.38L47.59 9.38Q46.87 9.38 46.37 9.45L46.37 9.45L46.37 12.08L47.92 12.18L47.92 12.18Q49.04 12.25 49.66 12.51L49.66 12.51L49.66 12.51Q50.27 12.77 50.53 13.31L50.53 13.31L50.53 13.31Q50.79 13.85 50.79 14.80L50.79 14.80L50.79 14.80Q50.79 15.78 50.48 16.34L50.48 16.34L50.48 16.34Q50.18 16.90 49.48 17.14L49.48 17.14L49.48 17.14Q48.78 17.39 47.56 17.39L47.56 17.39L47.56 17.39Q46.07 17.39 44.73 17.05L44.73 17.05L44.94 15.90ZM54.71 17.32L54.71 17.32Q53.68 17.32 53.14 17.01L53.14 17.01L53.14 17.01Q52.61 16.70 52.40 15.94L52.40 15.94L52.40 15.94Q52.19 15.18 52.19 13.68L52.19 13.68L52.19 13.68Q52.19 12.18 52.40 11.41L52.40 11.41L52.40 11.41Q52.61 10.64 53.14 10.34L53.14 10.34L53.14 10.34Q53.68 10.04 54.71 10.04L54.71 10.04L54.71 10.04Q55.29 10.04 55.91 10.11L55.91 10.11L55.91 10.11Q56.53 10.18 56.98 10.29L56.98 10.29L56.81 11.35L56.81 11.35Q55.80 11.14 54.87 11.14L54.87 11.14L54.87 11.14Q54.18 11.14 53.91 11.40L53.91 11.40L53.91 11.40Q53.65 11.66 53.65 12.32L53.65 12.32L53.65 16.06L53.65 16.06Q54.15 16.21 55.08 16.21L55.08 16.21L55.08 16.21Q55.52 16.21 55.95 16.14L55.95 16.14L55.95 16.14Q56.38 16.06 56.98 15.88L56.98 15.88L57.13 16.90L57.13 16.90Q56.66 17.09 56.02 17.21L56.02 17.21L56.02 17.21Q55.38 17.32 54.71 17.32L54.71 17.32ZM59.61 10.18L60.10 11.28L60.10 11.28Q60.73 10.72 61.18 10.42L61.18 10.42L61.18 10.42Q61.63 10.11 62.02 9.97L62.02 9.97L62.16 11.34L62.16 11.34Q61.70 11.48 61.20 11.73L61.20 11.73L61.20 11.73Q60.70 11.97 60.35 12.24L60.35 12.24L60.35 17.18L58.95 17.18L58.95 10.18L59.61 10.18ZM63.48 17.18L63.48 17.18ZM63.63 10.28L65.03 10.07L65.03 17.18L63.63 17.18L63.63 10.28ZM64.34 8.96L64.34 8.96Q63.83 8.96 63.65 8.79L63.65 8.79L63.65 8.79Q63.48 8.61 63.48 8.12L63.48 8.12L63.48 8.12Q63.48 7.62 63.66 7.43L63.66 7.43L63.66 7.43Q63.84 7.25 64.34 7.25L64.34 7.25L64.34 7.25Q64.83 7.25 65.01 7.43L65.01 7.43L65.01 7.43Q65.18 7.62 65.18 8.12L65.18 8.12L65.18 8.12Q65.18 8.61 65.02 8.79L65.02 8.79L65.02 8.79Q64.85 8.96 64.34 8.96L64.34 8.96ZM70.90 10.04L70.90 10.04Q71.95 10.04 72.48 10.34L72.48 10.34L72.48 10.34Q73.01 10.64 73.21 11.40L73.21 11.40L73.21 11.40Q73.42 12.17 73.42 13.68L73.42 13.68L73.42 13.68Q73.42 15.20 73.21 15.98L73.21 15.98L73.21 15.98Q73.00 16.76 72.46 17.07L72.46 17.07L72.46 17.07Q71.93 17.39 70.90 17.39L70.90 17.39L70.90 17.39Q70.20 17.39 69.73 17.31L69.73 17.31L69.73 17.31Q69.27 17.23 68.95 17.05L68.95 17.05L68.95 19.49L67.55 19.66L67.55 10.18L68.19 10.18L68.52 10.77L68.52 10.77Q68.81 10.35 69.36 10.19L69.36 10.19L69.36 10.19Q69.90 10.04 70.90 10.04L70.90 10.04ZM71.95 15.89L71.95 11.19L69.59 11.19L69.59 11.19Q69.23 11.19 69.09 11.25L69.09 11.25L69.09 11.25Q68.95 11.31 68.95 11.47L68.95 11.47L68.95 16.24L71.30 16.24L71.30 16.24Q71.68 16.24 71.81 16.17L71.81 16.17L71.81 16.17Q71.95 16.10 71.95 15.89L71.95 15.89ZM78.58 11.14L77.34 11.14L77.34 16.14L77.34 16.14Q77.84 16.20 78.33 16.21L78.33 16.21L78.25 17.16L78.25 17.16Q77.46 17.32 76.97 17.32L76.97 17.32L76.97 17.32Q76.44 17.32 76.19 17.06L76.19 17.06L76.19 17.06Q75.94 16.80 75.94 16.27L75.94 16.27L75.94 11.14L74.96 11.14L74.96 10.18L75.94 10.18L75.94 8.68L77.34 8.33L77.34 10.18L78.58 10.18L78.58 11.14Z"></path></g><!----><!----></svg>